<svg width="23" height="25" viewBox="0 0 23 25" fill="none" xmlns="http://www.w3.org/2000/svg">
<path d="M18.518 23.997C17.1571 25.3162 15.6712 25.1079 14.2408 24.483C12.7271 23.8442 11.3384 23.8164 9.74136 24.483C7.74161 25.344 6.68619 25.0941 5.4919 23.997C-1.28502 17.0117 -0.28515 6.3742 7.40832 5.98536C9.28309 6.08257 10.5885 7.013 11.6856 7.09633C13.3242 6.76303 14.8935 5.80482 16.6433 5.92981C18.7402 6.09645 20.3234 6.92968 21.3649 8.42949C17.0321 11.0264 18.0598 16.734 22.0315 18.331C21.2399 20.4141 20.2123 22.4833 18.5041 24.0109L18.518 23.997ZM11.5467 5.90203C11.3384 2.8052 13.852 0.249968 16.7405 0C17.1432 3.58288 13.4909 6.24921 11.5467 5.90203Z" fill="black"/>
</svg>
