<svg width="25" height="25" viewBox="0 0 25 25" fill="none" xmlns="http://www.w3.org/2000/svg">
<path d="M19.1889 23.997C17.828 25.3162 16.3421 25.1079 14.9117 24.483C13.398 23.8442 12.0093 23.8164 10.4123 24.483C8.41251 25.344 7.35709 25.0941 6.1628 23.997C-0.614126 17.0117 0.385749 6.3742 8.07922 5.98536C9.95399 6.08257 11.2594 7.013 12.3565 7.09633C13.9951 6.76303 15.5644 5.80482 17.3142 5.92981C19.4111 6.09645 20.9943 6.92968 22.0358 8.42949C17.703 11.0264 18.7307 16.734 22.7024 18.331C21.9108 20.4141 20.8832 22.4833 19.175 24.0109L19.1889 23.997ZM12.2176 5.90203C12.0093 2.8052 14.5229 0.249968 17.4114 0C17.8141 3.58288 14.1618 6.24921 12.2176 5.90203Z" fill="white"/>
</svg>
