<svg width="11" height="9" viewBox="0 0 11 9" fill="none" xmlns="http://www.w3.org/2000/svg">
<path d="M1.64196 0.000117437L9.36029 0.000118112C9.66501 -0.000323412 9.96361 0.0855378 10.2216 0.247764C10.4795 0.409989 10.6862 0.641946 10.8178 0.916784C10.9718 1.24288 11.0311 1.60569 10.989 1.96386C10.9469 2.32204 10.805 2.66117 10.5795 2.94262L6.72029 7.61762C6.56885 7.79236 6.3816 7.93251 6.17125 8.02856C5.96091 8.12461 5.73237 8.17432 5.50113 8.17432C5.26989 8.17432 5.04135 8.12461 4.831 8.02856C4.62065 7.93251 4.43341 7.79236 4.28196 7.61762L0.422793 2.94262C0.197287 2.66117 0.0553794 2.32204 0.0132414 1.96386C-0.0288967 1.60569 0.0304304 1.24288 0.184461 0.916783C0.316041 0.641945 0.522764 0.409988 0.780703 0.247763C1.03864 0.085537 1.33725 -0.000324141 1.64196 0.000117437Z" fill="#2E2E2E"/>
</svg>
