<svg width="11" height="9" viewBox="0 0 11 9" fill="none" xmlns="http://www.w3.org/2000/svg">
<path d="M9.36024 8.1742L1.6419 8.1742C1.33719 8.17464 1.03859 8.08878 0.780646 7.92655C0.522708 7.76433 0.315984 7.53237 0.184404 7.25753C0.0303739 6.93144 -0.028952 6.56863 0.0131862 6.21045C0.0553243 5.85228 0.197232 5.51314 0.422737 5.2317L4.2819 0.556699C4.43335 0.381954 4.62059 0.241809 4.83094 0.145759C5.04129 0.0497093 5.26983 0 5.50107 0C5.73231 0 5.96085 0.0497093 6.1712 0.145759C6.38155 0.241809 6.56879 0.381954 6.72024 0.556699L10.5794 5.2317C10.8049 5.51314 10.9468 5.85228 10.989 6.21045C11.0311 6.56863 10.9718 6.93144 10.8177 7.25753C10.6862 7.53237 10.4794 7.76433 10.2215 7.92655C9.96356 8.08878 9.66495 8.17464 9.36024 8.1742Z" fill="#2E2E2E"/>
</svg>
