<svg width="20" height="20" viewBox="0 0 20 20" fill="none" xmlns="http://www.w3.org/2000/svg">
<path d="M20 9.95323C20 9.45595 19.8291 8.97903 19.525 8.6274C19.2209 8.27577 18.8084 8.07823 18.3783 8.07823L5.5341 8.07823L9.79387 3.15323C10.0803 2.79779 10.2363 2.32768 10.2289 1.84193C10.2215 1.35617 10.0513 0.892709 9.75413 0.549177C9.457 0.205644 9.05613 0.00886305 8.63599 0.000291447C8.21585 -0.00827825 7.80924 0.172031 7.50181 0.503231L0.474282 8.62823C0.170584 8.97979 -4.60877e-07 9.45635 -4.39158e-07 9.95323C-4.17439e-07 10.4501 0.170584 10.9267 0.474282 11.2782L7.50181 19.4032C7.65028 19.5874 7.82932 19.7352 8.02825 19.8377C8.22718 19.9402 8.44193 19.9953 8.65968 19.9997C8.87743 20.0041 9.09373 19.9578 9.29566 19.8635C9.4976 19.7692 9.68104 19.6289 9.83503 19.4508C9.98903 19.2728 10.1104 19.0607 10.192 18.8272C10.2736 18.5938 10.3136 18.3437 10.3098 18.0919C10.3059 17.8402 10.2583 17.5919 10.1696 17.3619C10.081 17.1319 9.9532 16.9249 9.79387 16.7532L5.5341 11.8282L18.3783 11.8282C19.2735 11.8282 20 10.9882 20 9.95323Z" fill="#2E2E2E"/>
</svg>
