<svg width="17" height="24" viewBox="0 0 17 24" fill="none" xmlns="http://www.w3.org/2000/svg">
<path d="M13.2308 6.15385H12.9231V2.15385C12.9231 0.972308 11.9508 0 10.7692 0H5.84615C4.66462 0 3.69231 0.972308 3.69231 2.15385V6.15385H3.38462C1.51385 6.15385 0 7.66769 0 9.53846V19.3846C0 21.2554 1.51385 22.7692 3.38462 22.7692H3.69231V23.0769C3.69231 23.5815 4.11077 24 4.61538 24C5.12 24 5.53846 23.5815 5.53846 23.0769V22.7692H11.0769V23.0769C11.0769 23.5815 11.4954 24 12 24C12.5046 24 12.9231 23.5815 12.9231 23.0769V22.7692H13.2308C15.1015 22.7692 16.6154 21.2554 16.6154 19.3846V9.53846C16.6154 7.66769 15.1015 6.15385 13.2308 6.15385ZM5.53846 2.15385C5.53846 1.98154 5.67385 1.84615 5.84615 1.84615H10.7692C10.9415 1.84615 11.0769 1.98154 11.0769 2.15385V6.15385H5.53846V2.15385ZM14.7692 19.3846C14.7692 20.2338 14.08 20.9231 13.2308 20.9231H3.38462C2.53538 20.9231 1.84615 20.2338 1.84615 19.3846V9.53846C1.84615 8.68923 2.53538 8 3.38462 8H13.2308C14.08 8 14.7692 8.68923 14.7692 9.53846V19.3846Z" fill="#2E2E2E"/>
<path d="M4.61546 11.0771C4.11084 11.0771 3.69238 11.4956 3.69238 12.0002V16.9233C3.69238 17.4279 4.11084 17.8464 4.61546 17.8464C5.12007 17.8464 5.53854 17.4279 5.53854 16.9233V12.0002C5.53854 11.4956 5.12007 11.0771 4.61546 11.0771Z" fill="#2E2E2E"/>
<path d="M11.9992 11.0771C11.4946 11.0771 11.0762 11.4956 11.0762 12.0002V16.9233C11.0762 17.4279 11.4946 17.8464 11.9992 17.8464C12.5039 17.8464 12.9223 17.4279 12.9223 16.9233V12.0002C12.9223 11.4956 12.5039 11.0771 11.9992 11.0771Z" fill="#2E2E2E"/>
<path d="M8.30687 11.0771C7.80225 11.0771 7.38379 11.4956 7.38379 12.0002V16.9233C7.38379 17.4279 7.80225 17.8464 8.30687 17.8464C8.81148 17.8464 9.22994 17.4279 9.22994 16.9233V12.0002C9.22994 11.4956 8.81148 11.0771 8.30687 11.0771Z" fill="#2E2E2E"/>
</svg>
