<svg width="34" height="34" viewBox="0 0 34 34" fill="none" xmlns="http://www.w3.org/2000/svg">
<path d="M17 29.75C16.7616 29.7504 16.5234 29.7348 16.2871 29.7033C14.1042 26.204 12.8952 22.1853 12.7851 18.0625H31.8219C31.8474 17.7108 31.875 17.3581 31.875 17C31.875 14.058 31.0026 11.1821 29.3681 8.7359C27.7336 6.28972 25.4105 4.38315 22.6924 3.2573C19.9744 2.13145 16.9835 1.83687 14.098 2.41083C11.2126 2.98478 8.56209 4.40149 6.48179 6.48179C4.40148 8.5621 2.98477 11.2126 2.41082 14.098C1.83686 16.9835 2.13144 19.9744 3.25729 22.6924C4.38314 25.4105 6.28971 27.7336 8.73589 29.3681C11.1821 31.0026 14.058 31.875 17 31.875V29.75ZM29.6969 15.9375H23.3357C23.2223 12.0277 22.2221 8.19479 20.4106 4.72813C22.9166 5.42712 25.1491 6.8754 26.8088 8.87886C28.4686 10.8823 29.4763 13.3452 29.6969 15.9375ZM17.7119 4.29676C19.8951 7.79592 21.1045 11.8146 21.2149 15.9375H12.7851C12.8955 11.8146 14.1049 7.79592 16.2881 4.29676C16.7614 4.23517 17.2407 4.23517 17.714 4.29676M13.5904 4.72707C11.7784 8.19396 10.7778 12.0273 10.6643 15.9375H4.30312C4.52374 13.3452 5.53144 10.8823 7.19118 8.87886C8.85092 6.8754 11.0834 5.42712 13.5894 4.72813M4.30312 18.0625H10.6643C10.7777 21.9723 11.7779 25.8052 13.5894 29.2719C11.0834 28.5729 8.85092 27.1246 7.19118 25.1212C5.53144 23.1177 4.52374 20.6548 4.30312 18.0625Z" fill="#4FB1FC"/>
<path fill-rule="evenodd" clip-rule="evenodd" d="M26.5625 26.5625L31.875 28.6875V26.5625L26.5625 23.9062V21.25C26.5625 20.9682 26.4506 20.698 26.2513 20.4987C26.052 20.2994 25.7818 20.1875 25.5 20.1875C25.2182 20.1875 24.948 20.2994 24.7487 20.4987C24.5494 20.698 24.4375 20.9682 24.4375 21.25V23.9062L19.125 26.5625V28.6875L24.4375 26.5625V30.2812L22.3125 31.875V32.9375L25.5 31.875L28.6875 32.9375V31.875L26.5625 30.2812V26.5625Z" fill="#4FB1FC"/>
</svg>
