<svg width="139" height="139" viewBox="0 0 139 139" fill="none" xmlns="http://www.w3.org/2000/svg">
<path d="M25.8672 69.5136C25.8672 81.0863 30.4644 92.185 38.6475 100.368C46.8306 108.551 57.9293 113.148 69.5019 113.148C81.0746 113.148 92.1732 108.551 100.356 100.368C108.539 92.185 113.137 81.0863 113.137 69.5136C113.137 57.941 108.539 46.8423 100.356 38.6592C92.1732 30.4761 81.0746 25.8789 69.5019 25.8789C57.9293 25.8789 46.8306 30.4761 38.6475 38.6592C30.4644 46.8423 25.8672 57.941 25.8672 69.5136Z" fill="#3ED869"/>
<path d="M113.938 19.3922L107.632 25.6979C106.063 27.2678 106.063 29.8128 107.632 31.3827C109.202 32.9522 111.747 32.9525 113.317 31.3827L119.623 25.077C121.192 23.5071 121.192 20.9621 119.623 19.3922C118.053 17.8224 115.508 17.8224 113.938 19.3922Z" fill="#17B643"/>
<path d="M25.6879 107.646L19.3825 113.952C17.8126 115.522 17.8126 118.067 19.3825 119.637C20.9521 121.206 23.4974 121.206 25.0672 119.637L31.3726 113.331C32.9425 111.761 32.9425 109.216 31.3726 107.646C29.803 106.076 27.2577 106.076 25.6879 107.646Z" fill="#67F08D"/>
<path d="M25.0672 19.3922C23.4976 17.8224 20.9523 17.8224 19.3825 19.3922C17.8126 20.9621 17.8126 23.5071 19.3825 25.077L25.6879 31.3827C27.2575 32.9525 29.8028 32.9525 31.3726 31.3827C32.9425 29.8128 32.9425 27.2675 31.3726 25.6979L25.0672 19.3922Z" fill="#67F08D"/>
<path d="M113.317 107.646C111.748 106.076 109.202 106.076 107.632 107.646C106.063 109.216 106.063 111.761 107.632 113.331L113.938 119.637C115.507 121.206 118.053 121.206 119.623 119.637C121.192 118.067 121.192 115.522 119.623 113.952L113.317 107.646Z" fill="#17B643"/>
<path d="M87.8496 1.04812C85.7054 0.473564 83.501 1.74595 82.9264 3.89063L80.6185 12.5042C80.0437 14.6486 81.3164 16.8528 83.461 17.4273C85.6052 18.0019 87.8096 16.7292 88.3842 14.5848L90.6921 5.97126C91.2666 3.82685 89.994 1.62268 87.8496 1.04812Z" fill="#17B643"/>
<path d="M55.541 121.601C53.3968 121.026 51.1924 122.299 50.6178 124.443L48.3099 133.057C47.7351 135.201 49.0078 137.405 51.1524 137.98C53.2966 138.555 55.501 137.282 56.0756 135.138L58.3835 126.524C58.958 124.38 57.6856 122.175 55.541 121.601Z" fill="#67F08D"/>
<path d="M14.5732 50.6337L5.95964 48.3255C3.81523 47.7507 1.61105 49.0236 1.0365 51.1678C0.461669 53.3122 1.73433 55.5164 3.87901 56.0909L12.4926 58.3991C14.637 58.9739 16.8411 57.701 17.4157 55.5568C17.9903 53.4124 16.7176 51.208 14.5732 50.6337Z" fill="#67F08D"/>
<path d="M135.122 82.9384L126.508 80.6302C124.364 80.0554 122.16 81.3283 121.585 83.4725C121.01 85.6169 122.283 87.8211 124.428 88.3956L133.041 90.7038C135.186 91.2786 137.39 90.0057 137.965 87.8615C138.539 85.7171 137.267 83.5129 135.122 82.9384Z" fill="#17B643"/>
<path d="M56.0755 3.89062C55.5012 1.7462 53.2967 0.473546 51.1523 1.04811C49.0079 1.62266 47.7353 3.82684 48.3098 5.97125L50.6177 14.5848C51.192 16.7292 53.3964 18.0019 55.5408 17.4273C57.6853 16.8528 58.9579 14.6486 58.3834 12.5042L56.0755 3.89062Z" fill="#67F08D"/>
<path d="M88.3841 124.443C87.8098 122.299 85.6053 121.026 83.4609 121.601C81.3165 122.175 80.0439 124.38 80.6184 126.524L82.9263 135.138C83.5006 137.282 85.705 138.555 87.8494 137.98C89.9939 137.405 91.2665 135.201 90.692 133.057L88.3841 124.443Z" fill="#17B643"/>
<path d="M126.508 58.3991L135.122 56.0909C137.266 55.5164 138.539 53.3122 137.964 51.1678C137.39 49.0236 135.186 47.7507 133.041 48.3255L124.428 50.6337C122.283 51.2082 121.011 53.4124 121.585 55.5568C122.16 57.701 124.364 58.9739 126.508 58.3991Z" fill="#17B643"/>
<path d="M12.4926 80.6302L3.87901 82.9384C1.73433 83.5129 0.461669 85.7171 1.0365 87.8615C1.61105 90.0057 3.81523 91.2786 5.95964 90.7038L14.5732 88.3956C16.7176 87.8211 17.9903 85.6169 17.4157 83.4725C16.8411 81.3283 14.637 80.0554 12.4926 80.6302Z" fill="#67F08D"/>
<path d="M36.1914 69.5145C36.1914 78.3482 39.7006 86.8201 45.947 93.0665C52.1933 99.3129 60.6652 102.822 69.4989 102.822C78.3326 102.822 86.8045 99.3129 93.0509 93.0665C99.2973 86.8201 102.806 78.3482 102.806 69.5145C102.806 60.6808 99.2973 52.2089 93.0509 45.9626C86.8045 39.7162 78.3326 36.207 69.4989 36.207C60.6652 36.207 52.1933 39.7162 45.947 45.9626C39.7006 52.2089 36.1914 60.6808 36.1914 69.5145Z" fill="#1BCE4D"/>
<path d="M88.8721 60.6544L65.8131 83.7135C65.0925 84.4332 64.1157 84.8374 63.0972 84.8374C62.0788 84.8374 61.102 84.4332 60.3814 83.7135L50.1329 73.465C49.4544 72.736 49.0849 71.7724 49.1021 70.7767C49.1193 69.781 49.5219 68.8307 50.2251 68.1256C50.9303 67.4223 51.8805 67.0198 52.8763 67.0026C53.872 66.9854 54.8356 67.3548 55.5646 68.0333L63.0972 75.5659L83.4404 55.2227C84.1694 54.5443 85.133 54.1748 86.1287 54.192C87.1245 54.2092 88.0748 54.6117 88.7799 55.315C89.4831 56.0201 89.8857 56.9704 89.9029 57.9661C89.9201 58.9618 89.5506 59.9255 88.8721 60.6544Z" fill="white"/>
</svg>
