<svg width="16" height="17" viewBox="0 0 16 17" fill="none" xmlns="http://www.w3.org/2000/svg">
<path d="M8 16.5034C12.3594 16.5034 15.9688 12.8862 15.9688 8.53467C15.9688 4.17529 12.3516 0.565918 7.99219 0.565918C3.64062 0.565918 0.03125 4.17529 0.03125 8.53467C0.03125 12.8862 3.64844 16.5034 8 16.5034ZM7.92188 5.68311C7.33594 5.68311 6.86719 5.21436 6.86719 4.62061C6.86719 4.02686 7.33594 3.55811 7.92188 3.55811C8.50781 3.55811 8.96875 4.02686 8.96875 4.62061C8.96875 5.21436 8.50781 5.68311 7.92188 5.68311ZM6.58594 12.98C6.25 12.98 5.99219 12.7378 5.99219 12.4019C5.99219 12.0894 6.25 11.8315 6.58594 11.8315H7.57812V8.15967H6.71875C6.39062 8.15967 6.13281 7.91748 6.13281 7.58154C6.13281 7.26904 6.39062 7.01123 6.71875 7.01123H8.23438C8.64844 7.01123 8.86719 7.30811 8.86719 7.74561V11.8315H9.85938C10.1953 11.8315 10.4531 12.0894 10.4531 12.4019C10.4531 12.7378 10.1953 12.98 9.85938 12.98H6.58594Z" fill="#FF134C"/>
</svg>
