<svg width="29" height="27" viewBox="0 0 29 27" fill="none" xmlns="http://www.w3.org/2000/svg">
<path d="M27.8238 10.0604C25.9697 7.04077 21.7523 1.97461 14.3503 1.97461C6.94828 1.97461 2.73086 7.04077 0.876771 10.0604C0.303604 10.9874 0 12.0558 0 13.1458C0 14.2357 0.303604 15.3041 0.876771 16.2311C2.73086 19.2507 6.94828 24.3169 14.3503 24.3169C21.7523 24.3169 25.9697 19.2507 27.8238 16.2311C28.397 15.3041 28.7006 14.2357 28.7006 13.1458C28.7006 12.0558 28.397 10.9874 27.8238 10.0604ZM25.7856 14.9795C24.1933 17.5688 20.5891 21.9261 14.3503 21.9261C8.11142 21.9261 4.50724 17.5688 2.91495 14.9795C2.57442 14.4285 2.39405 13.7935 2.39405 13.1458C2.39405 12.498 2.57442 11.863 2.91495 11.312C4.50724 8.72272 8.11142 4.36544 14.3503 4.36544C20.5891 4.36544 24.1933 8.71794 25.7856 11.312C26.1261 11.863 26.3065 12.498 26.3065 13.1458C26.3065 13.7935 26.1261 14.4285 25.7856 14.9795Z" fill="#7480AC"/>
<path d="M14.3501 7.16797C13.168 7.16797 12.0124 7.51852 11.0294 8.17529C10.0465 8.83206 9.28042 9.76555 8.82803 10.8577C8.37564 11.9499 8.25727 13.1517 8.4879 14.3111C8.71852 15.4705 9.28778 16.5356 10.1237 17.3715C10.9596 18.2074 12.0246 18.7766 13.1841 19.0073C14.3435 19.2379 15.5453 19.1195 16.6374 18.6671C17.7296 18.2147 18.6631 17.4486 19.3199 16.4657C19.9766 15.4828 20.3272 14.3272 20.3272 13.145C20.3253 11.5604 19.695 10.0412 18.5744 8.92071C17.4539 7.8002 15.9348 7.16987 14.3501 7.16797ZM14.3501 16.7313C13.6408 16.7313 12.9475 16.521 12.3577 16.1269C11.768 15.7328 11.3083 15.1727 11.0369 14.5174C10.7654 13.8621 10.6944 13.1411 10.8328 12.4454C10.9712 11.7497 11.3127 11.1107 11.8143 10.6092C12.3158 10.1076 12.9548 9.76608 13.6505 9.62771C14.3461 9.48933 15.0672 9.56035 15.7225 9.83178C16.3778 10.1032 16.9379 10.5629 17.332 11.1526C17.726 11.7424 17.9364 12.4357 17.9364 13.145C17.9364 14.0962 17.5585 15.0083 16.886 15.6809C16.2134 16.3534 15.3012 16.7313 14.3501 16.7313Z" fill="#7480AC"/>
</svg>
