<svg width="57" height="57" viewBox="0 0 57 57" fill="none" xmlns="http://www.w3.org/2000/svg">
<path d="M49.495 53.9838L42.75 47.2625L41.2775 48.7588L38 42.4888L29.3312 33.82L22.8 40.375L23.655 46.2413L21.1137 48.7588L16.9337 41.2063L9.35748 37.0025L11.875 34.4375L17.8125 35.3163L24.2962 28.785L15.6512 20.1875L9.35748 16.8388L10.8537 15.3425L2.63623 7.12501L5.67623 4.10876L52.5112 50.9675L49.495 53.9838ZM39.5912 23.56L48.83 14.3213C50.2312 12.9438 50.2312 10.6875 48.83 9.28626C47.4287 7.88501 45.125 7.90876 43.795 9.28626L34.5562 18.525L23.6075 16.0075L42.1325 34.5325L39.5912 23.56Z" fill="black"/>
</svg>
