<svg width="42" height="42" viewBox="0 0 42 42" fill="none" xmlns="http://www.w3.org/2000/svg">
<g clip-path="url(#clip0_7670_294)">
<path d="M0 27.8918C0 28.4466 0.220394 28.9787 0.612699 29.371C1.005 29.7633 1.53708 29.9837 2.09189 29.9837H13.9459C14.1308 29.9837 14.3082 29.9102 14.439 29.7795C14.5697 29.6487 14.6432 29.4713 14.6432 29.2864C14.6432 29.1015 14.5697 28.9241 14.439 28.7933C14.3082 28.6626 14.1308 28.5891 13.9459 28.5891H8.36754V14.6432C8.36754 14.4583 8.29408 14.2809 8.16331 14.1501C8.03254 14.0194 7.85518 13.9459 7.67025 13.9459C7.48531 13.9459 7.30795 14.0194 7.17718 14.1501C7.04642 14.2809 6.97295 14.4583 6.97295 14.6432V28.5891H2.09189C1.90695 28.5891 1.72959 28.5156 1.59882 28.3849C1.46806 28.2541 1.39459 28.0767 1.39459 27.8918V9.06484C1.39459 8.8799 1.46806 8.70254 1.59882 8.57177C1.72959 8.44101 1.90695 8.36754 2.09189 8.36754H23.0107V13.2486C23.0107 13.4335 23.0842 13.6109 23.215 13.7417C23.3457 13.8724 23.5231 13.9459 23.708 13.9459C23.893 13.9459 24.0703 13.8724 24.2011 13.7417C24.3319 13.6109 24.4053 13.4335 24.4053 13.2486V8.36754H28.5891C28.774 8.36754 28.9514 8.44101 29.0822 8.57177C29.2129 8.70254 29.2864 8.8799 29.2864 9.06484V13.2486C29.2864 13.4335 29.3599 13.6109 29.4906 13.7417C29.6214 13.8724 29.7988 13.9459 29.9837 13.9459C30.1686 13.9459 30.346 13.8724 30.4768 13.7417C30.6075 13.6109 30.681 13.4335 30.681 13.2486V9.06484C30.681 8.51003 30.4606 7.97795 30.0683 7.58565C29.676 7.19335 29.1439 6.97295 28.5891 6.97295H23.708V4.88107C23.7066 3.58698 23.1918 2.34632 22.2768 1.43126C21.3617 0.516204 20.1211 0.00147643 18.827 0L11.854 0C10.5599 0.00147643 9.31927 0.516204 8.40421 1.43126C7.48916 2.34632 6.97443 3.58698 6.97295 4.88107V6.97295H2.09189C1.53708 6.97295 1.005 7.19335 0.612699 7.58565C0.220394 7.97795 0 8.51003 0 9.06484L0 27.8918ZM18.827 6.97295H11.854V4.88107H18.827V6.97295ZM8.36754 4.88107C8.36865 3.95673 8.73633 3.07058 9.38993 2.41698C10.0435 1.76338 10.9297 1.3957 11.854 1.39459H18.827C19.7513 1.3957 20.6375 1.76338 21.2911 2.41698C21.9447 3.07058 22.3123 3.95673 22.3134 4.88107V6.97295H20.2216V4.88107C20.2216 4.5112 20.0746 4.15648 19.8131 3.89494C19.5516 3.63341 19.1968 3.48648 18.827 3.48648H11.854C11.4841 3.48648 11.1294 3.63341 10.8679 3.89494C10.6064 4.15648 10.4594 4.5112 10.4594 4.88107V6.97295H8.36754V4.88107Z" fill="#4FB1FC"/>
<path d="M3.48636 9.76215C3.30142 9.76215 3.12406 9.83561 2.9933 9.96638C2.86253 10.0971 2.78906 10.2745 2.78906 10.4594V13.9459C2.78906 14.1309 2.86253 14.3082 2.9933 14.439C3.12406 14.5697 3.30142 14.6432 3.48636 14.6432C3.67129 14.6432 3.84865 14.5697 3.97942 14.439C4.11019 14.3082 4.18365 14.1309 4.18365 13.9459V11.1567H4.88095C5.06588 11.1567 5.24324 11.0833 5.37401 10.9525C5.50478 10.8217 5.57824 10.6444 5.57824 10.4594C5.57824 10.2745 5.50478 10.0971 5.37401 9.96638C5.24324 9.83561 5.06588 9.76215 4.88095 9.76215H3.48636ZM6.97283 10.4594V11.854C6.97283 12.039 7.0463 12.2163 7.17707 12.3471C7.30784 12.4779 7.48519 12.5513 7.67013 12.5513C7.85506 12.5513 8.03242 12.4779 8.16319 12.3471C8.29396 12.2163 8.36742 12.039 8.36742 11.854V10.4594C8.36742 10.2745 8.29396 10.0971 8.16319 9.96638C8.03242 9.83561 7.85506 9.76215 7.67013 9.76215C7.48519 9.76215 7.30784 9.83561 7.17707 9.96638C7.0463 10.0971 6.97283 10.2745 6.97283 10.4594ZM26.4971 14.6432C24.8021 14.6412 23.129 15.0255 21.6047 15.7668C20.0804 16.5081 18.7451 17.587 17.7001 18.9215C16.655 20.256 15.9278 21.8111 15.5737 23.4686C15.2195 25.1262 15.2476 26.8427 15.656 28.4877C16.0643 30.1328 16.8421 31.6632 17.9303 32.9627C19.0185 34.2622 20.3885 35.2967 21.9363 35.9877C23.4841 36.6786 25.1689 37.0078 26.8629 36.9502C28.5569 36.8927 30.2156 36.4499 31.7129 35.6555L37.073 41.0156C37.3314 41.2758 37.6387 41.4824 37.9772 41.6235C38.3157 41.7645 38.6787 41.8374 39.0455 41.8378C39.4122 41.8382 39.7754 41.7661 40.1142 41.6257C40.4529 41.4854 40.7607 41.2794 41.0197 41.0198C41.5421 40.4968 41.8356 39.7878 41.8356 39.0485C41.8356 38.3093 41.5421 37.6003 41.0197 37.0773L39.6251 35.6827L35.8325 31.8901C36.9339 30.2085 37.5599 28.2601 37.644 26.2517C37.7282 24.2432 37.2674 22.2493 36.3104 20.4814C35.3535 18.7135 33.9361 17.2375 32.2085 16.2097C30.4809 15.1818 28.5074 14.6406 26.4971 14.6432ZM16.735 25.7999C16.735 20.4084 21.1056 16.0378 26.4971 16.0378C31.8886 16.0378 36.2592 20.4084 36.2592 25.7999C36.2592 31.1914 31.8886 35.5621 26.4971 35.5621C21.1077 35.5565 16.7405 31.1893 16.735 25.7999ZM40.443 39.0485C40.443 39.4202 40.2952 39.7765 40.0309 40.038C39.7659 40.2911 39.4133 40.432 39.0469 40.4312C38.6804 40.4304 38.3285 40.288 38.0645 40.0338L37.1615 39.1322L39.1321 37.1617L40.0337 38.0633C40.2966 38.3241 40.4437 38.679 40.443 39.0485ZM38.1475 36.1757L36.1756 38.1462L32.9289 34.9003C33.691 34.3606 34.3829 33.7282 34.9888 33.0176L38.1475 36.1757Z" fill="#4FB1FC"/>
<path d="M26.4972 17.4324C21.8762 17.4324 18.1296 21.1789 18.1296 25.7999C18.1296 30.4209 21.8762 34.1675 26.4972 34.1675C31.1182 34.1675 34.8647 30.4209 34.8647 25.7999C34.8598 21.181 31.1161 17.4373 26.4972 17.4324ZM26.4972 32.7729C22.646 32.7729 19.5242 29.6511 19.5242 25.7999C19.5242 21.9488 22.646 18.827 26.4972 18.827C30.3483 18.827 33.4701 21.9488 33.4701 25.7999C33.4659 29.649 30.3463 32.7687 26.4972 32.7729Z" fill="#4FB1FC"/>
<path d="M23.4034 21.1608C22.6392 21.6696 22.0124 22.3593 21.579 23.1686C21.1456 23.9779 20.9188 24.8818 20.9189 25.7999C20.9189 25.9849 20.9924 26.1622 21.1232 26.293C21.2539 26.4238 21.4313 26.4972 21.6162 26.4972C21.8012 26.4972 21.9785 26.4238 22.1093 26.293C22.2401 26.1622 22.3135 25.9849 22.3135 25.7999C22.3139 25.1112 22.4842 24.4331 22.8095 23.826C23.1347 23.2189 23.6049 22.7015 24.1781 22.3197C24.2571 22.2702 24.3254 22.2053 24.3789 22.1288C24.4325 22.0524 24.4701 21.966 24.4896 21.8748C24.5091 21.7836 24.5101 21.6894 24.4926 21.5978C24.475 21.5061 24.4393 21.419 24.3874 21.3414C24.3356 21.2638 24.2687 21.1975 24.1908 21.1462C24.1128 21.095 24.0254 21.0599 23.9336 21.0431C23.8418 21.0262 23.7476 21.028 23.6566 21.0482C23.5655 21.0684 23.4794 21.1067 23.4034 21.1608Z" fill="#4FB1FC"/>
<path d="M26.4973 21.6161C26.8824 21.6161 27.1946 21.304 27.1946 20.9189C27.1946 20.5337 26.8824 20.2216 26.4973 20.2216C26.1122 20.2216 25.8 20.5337 25.8 20.9189C25.8 21.304 26.1122 21.6161 26.4973 21.6161Z" fill="#4FB1FC"/>
</g>
<defs>
<clipPath id="clip0_7670_294">
<rect width="41.8377" height="41.8377" fill="white"/>
</clipPath>
</defs>
</svg>
