<svg width="25" height="25" viewBox="0 0 25 25" fill="none" xmlns="http://www.w3.org/2000/svg">
<path d="M8.47962 0.822346C6.04747 1.68889 3.94998 3.33361 2.49525 5.51493C1.04052 7.69625 0.305222 10.2992 0.397363 12.9414C0.489503 15.5836 1.40422 18.1259 3.00717 20.1947C4.61011 22.2636 6.81679 23.75 9.30307 24.4356C11.3188 24.9698 13.4306 24.9933 15.4571 24.504C17.2928 24.0805 18.99 23.1746 20.3825 21.8751C21.8318 20.4812 22.8838 18.708 23.4253 16.7462C24.0139 14.6127 24.1187 12.3691 23.7315 10.1876H12.4124V15.0098H18.9676C18.8366 15.779 18.5559 16.513 18.1422 17.1681C17.7285 17.8232 17.1904 18.3858 16.5601 18.8223C15.7596 19.3662 14.8572 19.7321 13.911 19.8966C12.9619 20.0778 11.9884 20.0778 11.0393 19.8966C10.0774 19.6923 9.16747 19.2846 8.36742 18.6993C7.08213 17.7649 6.11706 16.4374 5.60992 14.9063C5.0942 13.3466 5.0942 11.6556 5.60992 10.0958C5.97091 9.00246 6.56769 8.00699 7.3557 7.18367C8.25748 6.2242 9.39917 5.53836 10.6555 5.2014C11.9118 4.86445 13.2342 4.8894 14.4777 5.27352C15.449 5.57975 16.3373 6.1148 17.0716 6.83602C17.8108 6.08081 18.5486 5.32365 19.2852 4.56453C19.6656 4.15633 20.0802 3.76766 20.4548 3.34969C19.3339 2.27835 18.0181 1.44472 16.5829 0.896565C13.9693 -0.0780646 11.1097 -0.104257 8.47962 0.822346Z" fill="white"/>
<path d="M8.4799 0.822318C11.1097 -0.104914 13.9694 -0.0794112 16.5832 0.894584C18.0186 1.44647 19.3338 2.28411 20.4532 3.35943C20.0728 3.7774 19.6716 4.16802 19.2836 4.57427C18.5457 5.33078 17.8085 6.08469 17.0719 6.83599C16.3375 6.11477 15.4493 5.57972 14.4779 5.27349C13.2349 4.88802 11.9126 4.86163 10.6559 5.19721C9.39924 5.53278 8.25685 6.21736 7.35408 7.17583C6.56607 7.99915 5.96929 8.99462 5.6083 10.0879L1.66602 6.95318C3.07711 4.07927 5.52034 1.88096 8.4799 0.822318Z" fill="white"/>
<path d="M0.619598 10.0586C0.831491 8.98007 1.18328 7.9356 1.66555 6.95312L5.60783 10.0957C5.09211 11.6555 5.09211 13.3465 5.60783 14.9063C4.29437 15.9479 2.98027 16.9948 1.66555 18.0469C0.458238 15.5787 0.0900289 12.7666 0.619598 10.0586Z" fill="white"/>
<path d="M12.413 10.1855H23.732C24.1192 12.3671 24.0145 14.6107 23.4259 16.7441C22.8843 18.706 21.8324 20.4792 20.3831 21.873C19.1108 20.8535 17.8329 19.8418 16.5606 18.8223C17.1914 18.3853 17.7297 17.8221 18.1434 17.1663C18.5572 16.5105 18.8377 15.7757 18.9682 15.0059H12.413C12.4111 13.4004 12.413 11.793 12.413 10.1855Z" fill="white"/>
<path d="M1.66406 18.0469C2.97879 17.0052 4.29288 15.9583 5.60634 14.9062C6.1145 16.4379 7.08095 17.7654 8.36765 18.6992C9.17019 19.2818 10.0821 19.6862 11.0453 19.8867C11.9944 20.068 12.9678 20.068 13.9169 19.8867C14.8632 19.7222 15.7655 19.3563 16.566 18.8125C17.8383 19.832 19.1162 20.8438 20.3885 21.8633C18.9962 23.1635 17.299 24.0701 15.463 24.4941C13.4365 24.9834 11.3247 24.96 9.30901 24.4258C7.71479 23.9886 6.22569 23.218 4.93503 22.1621C3.56895 21.0482 2.45319 19.6445 1.66406 18.0469Z" fill="white"/>
</svg>
