<svg width="25" height="25" viewBox="0 0 25 25" fill="none" xmlns="http://www.w3.org/2000/svg">
<g clip-path="url(#clip0_3460_46013)">
<path d="M8.80872 0.822346C6.37657 1.68889 4.27908 3.33361 2.82435 5.51493C1.36962 7.69625 0.634324 10.2992 0.726464 12.9414C0.818605 15.5836 1.73333 18.1259 3.33627 20.1947C4.93921 22.2636 7.14589 23.75 9.63217 24.4356C11.6479 24.9698 13.7597 24.9933 15.7862 24.504C17.6219 24.0805 19.3192 23.1746 20.7116 21.8751C22.1609 20.4812 23.2129 18.708 23.7544 16.7462C24.343 14.6127 24.4478 12.3691 24.0606 10.1876H12.7415V15.0098H19.2967C19.1657 15.779 18.885 16.513 18.4713 17.1681C18.0576 17.8232 17.5195 18.3858 16.8892 18.8223C16.0887 19.3662 15.1863 19.7321 14.2401 19.8966C13.291 20.0778 12.3175 20.0778 11.3684 19.8966C10.4065 19.6923 9.49657 19.2846 8.69652 18.6993C7.41124 17.7649 6.44616 16.4374 5.93902 14.9063C5.4233 13.3466 5.4233 11.6556 5.93902 10.0958C6.30001 9.00246 6.89679 8.00699 7.6848 7.18367C8.58659 6.2242 9.72827 5.53836 10.9846 5.2014C12.2409 4.86445 13.5633 4.8894 14.8068 5.27352C15.7781 5.57975 16.6664 6.1148 17.4007 6.83602C18.1399 6.08081 18.8777 5.32365 19.6143 4.56453C19.9947 4.15633 20.4093 3.76766 20.7839 3.34969C19.663 2.27835 18.3472 1.44472 16.912 0.896565C14.2984 -0.0780646 11.4388 -0.104257 8.80872 0.822346Z" fill="white"/>
<path d="M8.80901 0.822318C11.4388 -0.104914 14.2985 -0.0794112 16.9123 0.894584C18.3477 1.44647 19.6629 2.28411 20.7823 3.35943C20.4019 3.7774 20.0007 4.16802 19.6127 4.57427C18.8748 5.33078 18.1376 6.08469 17.401 6.83599C16.6666 6.11477 15.7784 5.57972 14.8071 5.27349C13.564 4.88802 12.2417 4.86163 10.985 5.19721C9.72834 5.53278 8.58595 6.21736 7.68318 7.17583C6.89517 7.99915 6.29839 8.99462 5.9374 10.0879L1.99512 6.95318C3.40621 4.07927 5.84944 1.88096 8.80901 0.822318Z" fill="#E33629"/>
<path d="M0.949188 10.0586C1.16108 8.98007 1.51287 7.9356 1.99514 6.95312L5.93742 10.0957C5.4217 11.6555 5.4217 13.3465 5.93742 14.9062C4.62396 15.9479 3.30986 16.9948 1.99514 18.0469C0.787827 15.5787 0.419619 12.7666 0.949188 10.0586Z" fill="#F8BD00"/>
<path d="M12.7416 10.1855H24.0606C24.4478 12.3671 24.3431 14.6107 23.7545 16.7441C23.2129 18.706 22.161 20.4792 20.7117 21.873C19.4395 20.8535 18.1615 19.8418 16.8892 18.8223C17.52 18.3853 18.0584 17.8221 18.4721 17.1663C18.8858 16.5105 19.1663 15.7757 19.2968 15.0059H12.7416C12.7397 13.4004 12.7416 11.793 12.7416 10.1855Z" fill="#587DBD"/>
<path d="M1.99316 18.0469C3.30789 17.0052 4.62198 15.9583 5.93544 14.9062C6.4436 16.4379 7.41005 17.7654 8.69675 18.6992C9.4993 19.2818 10.4112 19.6862 11.3744 19.8867C12.3235 20.068 13.2969 20.068 14.246 19.8867C15.1923 19.7222 16.0946 19.3563 16.8951 18.8125C18.1674 19.832 19.4453 20.8438 20.7176 21.8633C19.3253 23.1635 17.6281 24.0701 15.7921 24.4941C13.7656 24.9834 11.6538 24.96 9.63811 24.4258C8.04389 23.9886 6.55479 23.218 5.26413 22.1621C3.89805 21.0482 2.7823 19.6445 1.99316 18.0469Z" fill="#319F43"/>
</g>
<defs>
<clipPath id="clip0_3460_46013">
<rect width="24.3421" height="25" fill="white" transform="translate(0.329102)"/>
</clipPath>
</defs>
</svg>
