<svg width="22" height="26" viewBox="0 0 22 26" fill="none" xmlns="http://www.w3.org/2000/svg">
<path d="M1.64123 20.7346C1.64123 21.2388 2.04851 21.6461 2.55264 21.6461H18.9011C19.4052 21.6461 19.8125 21.2388 19.8125 20.7346V14.0984C19.8125 9.07995 15.7453 5.01277 10.7269 5.01277C5.70841 5.01277 1.64123 9.07995 1.64123 14.0984V20.7346ZM3.69191 14.0984C3.69191 10.2135 6.84198 7.06345 10.7269 7.06345C14.6118 7.06345 17.7618 10.2135 17.7618 14.0984V19.5954H7.65086V14.725C7.65086 14.5684 7.52269 14.4402 7.36604 14.4402H6.11285C5.9562 14.4402 5.82803 14.5684 5.82803 14.725V19.5954H3.69191V14.0984ZM2.32194 6.9068L3.44981 5.77893C3.5381 5.69063 3.5381 5.54538 3.44981 5.45708L1.51591 3.52318C1.47308 3.48078 1.41525 3.45699 1.35499 3.45699C1.29472 3.45699 1.23689 3.48078 1.19407 3.52318L0.0661915 4.65105C0.0237874 4.69388 0 4.75171 0 4.81198C0 4.87224 0.0237874 4.93007 0.0661915 4.9729L2.0001 6.9068C2.08839 6.99509 2.2308 6.99509 2.32194 6.9068ZM21.3933 4.65105L20.2654 3.52318C20.2226 3.48078 20.1647 3.45699 20.1045 3.45699C20.0442 3.45699 19.9864 3.48078 19.9435 3.52318L18.0096 5.45708C17.9672 5.49991 17.9434 5.55774 17.9434 5.61801C17.9434 5.67827 17.9672 5.7361 18.0096 5.77893L19.1375 6.9068C19.2258 6.99509 19.3711 6.99509 19.4593 6.9068L21.3933 4.9729C21.4815 4.88176 21.4815 4.73935 21.3933 4.65105ZM19.841 23.4689H1.61275C1.10862 23.4689 0.701332 23.8762 0.701332 24.3803V25.0639C0.701332 25.1892 0.803866 25.2917 0.929186 25.2917H20.5246C20.6499 25.2917 20.7524 25.1892 20.7524 25.0639V24.3803C20.7524 23.8762 20.3451 23.4689 19.841 23.4689ZM9.92939 3.18994H11.5244C11.6497 3.18994 11.7522 3.08741 11.7522 2.96209V0.227853C11.7522 0.102534 11.6497 0 11.5244 0H9.92939C9.80407 0 9.70153 0.102534 9.70153 0.227853V2.96209C9.70153 3.08741 9.80407 3.18994 9.92939 3.18994Z" fill="#2E2E2E"/>
</svg>
