<svg width="22" height="23" viewBox="0 0 22 23" fill="none" xmlns="http://www.w3.org/2000/svg">
<path d="M17.3787 7.26839C17.337 5.57594 16.6251 3.96927 15.3995 2.80138C14.1739 1.63349 12.5347 0.999919 10.8422 1.03987C9.14975 0.999919 7.51061 1.63349 6.28498 2.80138C5.05935 3.96927 4.34747 5.57594 4.30575 7.26839C4.30575 14.535 1.03809 16.6112 1.03809 16.6112H20.6464C20.6464 16.6112 17.3787 14.535 17.3787 7.26839Z" stroke="white" stroke-width="2.07617" stroke-miterlimit="10" stroke-linecap="round" stroke-linejoin="round"/>
<path d="M12.726 20.7613C12.5269 21.0812 12.2491 21.3446 11.9191 21.5264C11.5891 21.7081 11.218 21.8021 10.8412 21.7994C10.4645 21.8021 10.0934 21.7081 9.76338 21.5264C9.43338 21.3446 9.15557 21.0812 8.95654 20.7613" stroke="white" stroke-width="2.07617" stroke-miterlimit="10" stroke-linecap="round" stroke-linejoin="round"/>
</svg>
