<svg width="42" height="42" viewBox="0 0 42 42" fill="none" xmlns="http://www.w3.org/2000/svg">
<g clip-path="url(#clip0_7670_289)">
<path d="M2.09189 33.1599V33.8572C2.09189 34.412 2.31228 34.944 2.70458 35.3364C3.09689 35.7287 3.62897 35.9491 4.18377 35.9491H6.27566C6.83046 35.9491 7.36254 35.7287 7.75484 35.3364C8.14715 34.944 8.36754 34.412 8.36754 33.8572V33.1599H14.6432C14.8281 33.1599 15.0055 33.0864 15.1363 32.9556C15.267 32.8249 15.3405 32.6475 15.3405 32.4626C15.3405 32.2776 15.267 32.1003 15.1363 31.9695C15.0055 31.8387 14.8281 31.7653 14.6432 31.7653H8.36754V22.0031H9.06484C9.43471 22.0031 9.78942 21.8562 10.051 21.5947C10.3125 21.3331 10.4594 20.9784 10.4594 20.6086V16.7135C10.4601 16.3439 10.313 15.9883 10.0508 15.7275L8.65622 14.3329C8.56989 14.2487 8.47282 14.1763 8.36754 14.1174V11.5437H30.681C30.8659 11.5437 31.0433 11.6172 31.1741 11.748C31.3048 11.8787 31.3783 12.0561 31.3783 12.241V19.214C31.3783 19.3989 31.4517 19.5763 31.5825 19.707C31.7133 19.8378 31.8906 19.9113 32.0756 19.9113C32.2605 19.9113 32.4379 19.8378 32.5686 19.707C32.6994 19.5763 32.7729 19.3989 32.7729 19.214V12.241C32.7729 11.6862 32.5525 11.1541 32.1602 10.7618C31.7679 10.3695 31.2358 10.1491 30.681 10.1491H25.7999V8.05724C25.7984 6.76316 25.2837 5.5225 24.3687 4.60744C23.4536 3.69238 22.2129 3.17765 20.9189 3.17618H12.5513C11.2572 3.17765 10.0166 3.69238 9.10151 4.60744C8.18645 5.5225 7.67172 6.76316 7.67025 8.05724V10.1491H2.09189C1.53708 10.1491 1.005 10.3695 0.612699 10.7618C0.220394 11.1541 0 11.6862 0 12.241L0 31.068C0 31.6228 0.220394 32.1549 0.612699 32.5472C1.005 32.9395 1.53708 33.1599 2.09189 33.1599ZM6.97295 33.8572C6.97295 34.0421 6.89949 34.2195 6.76872 34.3502C6.63795 34.481 6.46059 34.5545 6.27566 34.5545H4.18377C3.99884 34.5545 3.82148 34.481 3.69071 34.3502C3.55994 34.2195 3.48648 34.0421 3.48648 33.8572V33.1599H6.97295V33.8572ZM9.06484 16.7135V20.6086H6.27566V16.7135L7.66676 15.3189H7.67373L9.06484 16.7135ZM20.9189 10.1491H12.5513V8.05724H20.9189V10.1491ZM9.06484 8.05724C9.06594 7.13291 9.43362 6.24676 10.0872 5.59316C10.7408 4.93956 11.627 4.57188 12.5513 4.57077H20.9189C21.8432 4.57188 22.7293 4.93956 23.3829 5.59316C24.0365 6.24676 24.4042 7.13291 24.4053 8.05724V10.1491H22.3134V8.05724C22.3134 7.68738 22.1665 7.33266 21.905 7.07112C21.6434 6.80958 21.2887 6.66265 20.9189 6.66265H12.5513C12.1814 6.66265 11.8267 6.80958 11.5652 7.07112C11.3037 7.33266 11.1567 7.68738 11.1567 8.05724V10.1491H9.06484V8.05724ZM1.39459 12.241C1.39459 12.0561 1.46806 11.8787 1.59882 11.748C1.72959 11.6172 1.90695 11.5437 2.09189 11.5437H6.97295V14.1174C6.86766 14.176 6.77074 14.2485 6.68427 14.3329L5.28968 15.7275C5.15974 15.8566 5.05671 16.0103 4.98657 16.1795C4.91643 16.3488 4.88057 16.5303 4.88107 16.7135V20.6086C4.88107 20.9784 5.028 21.3331 5.28953 21.5947C5.55107 21.8562 5.90579 22.0031 6.27566 22.0031H6.97295V31.7653H2.09189C1.90695 31.7653 1.72959 31.6918 1.59882 31.561C1.46806 31.4303 1.39459 31.2529 1.39459 31.068V12.241Z" fill="#4FB1FC"/>
<path d="M41.7478 23.1676C41.8653 22.6409 41.8701 22.0953 41.7619 21.5665C41.6538 21.0378 41.4351 20.5378 41.1202 20.0995C40.5354 19.318 39.6826 18.7799 38.7254 18.5885C37.7682 18.3971 36.7741 18.566 35.9337 19.0627L29.3499 22.8643L23.5316 20.3785C23.3317 20.2939 23.1149 20.2566 22.8981 20.2696C22.6814 20.2825 22.4706 20.3453 22.2821 20.4531L21.0646 21.1566C20.865 21.2719 20.697 21.4345 20.5753 21.6303C20.4537 21.826 20.3823 22.0488 20.3674 22.2787C20.3525 22.5087 20.3946 22.7388 20.4899 22.9486C20.5853 23.1584 20.7309 23.3414 20.914 23.4814L24.0832 25.9045L22.0799 27.0613L16.9108 24.3154C16.7017 24.2046 16.4681 24.1483 16.2315 24.1519C15.9949 24.1554 15.763 24.2186 15.5574 24.3356L14.0665 25.1968C13.7451 25.3826 13.5105 25.6884 13.4144 26.047C13.3183 26.4057 13.3685 26.7878 13.554 27.1094L16.7351 32.6125L16.7546 37.3053C16.7546 37.8053 17.0231 38.2669 17.4582 38.513C17.6639 38.6343 17.8975 38.6985 18.1367 38.6999C18.4109 38.6963 18.6791 38.6192 18.9134 38.4768L20.232 37.5249C20.5695 37.3346 20.8094 37.0096 20.8924 36.6317L21.1748 35.6332C21.2445 35.6332 21.3101 35.6513 21.3777 35.6513C22.221 35.6477 23.0484 35.4224 23.7771 34.9979L27.5425 32.8266L27.7803 35.2671C27.8027 35.5002 27.8833 35.724 28.0147 35.9178C28.146 36.1117 28.324 36.2695 28.5322 36.3767C28.7404 36.4839 28.9722 36.5371 29.2063 36.5315C29.4404 36.5259 29.6693 36.4615 29.8721 36.3444L31.0729 35.6471C31.2527 35.5438 31.4072 35.4017 31.5252 35.2312C31.6432 35.0606 31.7216 34.8659 31.7548 34.6612L32.5267 29.9398L39.902 25.6814C40.3673 25.4134 40.7716 25.0515 41.0894 24.6187C41.4071 24.1859 41.6314 23.6918 41.7478 23.1676ZM21.7619 22.3657L22.9843 21.6622L27.8402 23.7366L25.392 25.15L21.7619 22.3657ZM40.386 22.8685C40.3119 23.2034 40.169 23.5191 39.9662 23.7957C39.7634 24.0723 39.5053 24.3037 39.2082 24.4751L32.821 28.1624L33.3161 25.1347C33.3308 25.0443 33.3276 24.9519 33.3067 24.8628C33.2857 24.7736 33.2474 24.6895 33.1939 24.6152C33.1404 24.5408 33.0728 24.4778 32.9949 24.4296C32.9171 24.3814 32.8305 24.349 32.7401 24.3342C32.6497 24.3195 32.5573 24.3227 32.4682 24.3436C32.3791 24.3646 32.2949 24.4029 32.2206 24.4564C32.1462 24.5099 32.0832 24.5775 32.035 24.6554C31.9868 24.7332 31.9544 24.8198 31.9396 24.9102L30.3784 34.4464L29.17 35.1353L28.8269 31.6084V31.5868L28.4559 27.7705C28.438 27.5864 28.3477 27.4169 28.2048 27.2995C28.0619 27.182 27.8782 27.126 27.6941 27.144C27.51 27.1619 27.3406 27.2522 27.2231 27.3951C27.1056 27.538 27.0497 27.7217 27.0676 27.9058L27.3981 31.303L23.0805 33.7854C22.6168 34.0503 22.0987 34.2037 21.566 34.2351L22.5994 30.5778C22.6268 30.489 22.6362 30.3955 22.627 30.303C22.6177 30.2105 22.5901 30.1208 22.5457 30.0391C22.5013 29.9574 22.441 29.8854 22.3684 29.8274C22.2958 29.7693 22.2123 29.7264 22.1228 29.7011C22.0333 29.6758 21.9397 29.6686 21.8475 29.6801C21.7552 29.6915 21.6661 29.7212 21.5855 29.7676C21.5049 29.8139 21.4344 29.8759 21.3781 29.9499C21.3218 30.0239 21.2809 30.1084 21.2578 30.1985L19.548 36.2489C19.5417 36.2691 19.4783 36.3312 19.4727 36.3514L18.1478 37.299L18.1297 32.4242C18.1298 32.3017 18.0973 32.1814 18.0356 32.0756L14.7638 26.4059L16.2561 25.5482L21.7647 28.4768C21.8691 28.5323 21.9859 28.5603 22.1041 28.5582C22.2223 28.5562 22.338 28.5241 22.4404 28.465L36.631 20.2725C37.1694 19.9465 37.8092 19.8309 38.4276 19.9479C39.046 20.0649 39.5994 20.4062 39.9815 20.9063C40.3901 21.4739 40.5373 22.1886 40.386 22.8713V22.8685Z" fill="#4FB1FC"/>
</g>
<defs>
<clipPath id="clip0_7670_289">
<rect width="41.8377" height="41.8377" fill="white"/>
</clipPath>
</defs>
</svg>
