<svg viewBox="0 0 74 74" fill="none" xmlns="http://www.w3.org/2000/svg">
<g clip-path="url(#clip0_7641_2396)">
<path d="M36.7004 0C16.4315 0 0 16.4315 0 36.7004C0 56.9706 16.4315 73.4009 36.7004 73.4009C56.9706 73.4009 73.4009 56.9706 73.4009 36.7004C73.4009 16.4315 56.9706 0 36.7004 0ZM36.7004 68.8856C18.9936 68.8856 4.58755 54.4073 4.58755 36.7003C4.58755 18.9935 18.9936 4.58741 36.7004 4.58741C54.4073 4.58741 68.8133 18.9936 68.8133 36.7003C68.8133 54.407 54.4073 68.8856 36.7004 68.8856ZM51.3474 23.2715L29.8144 44.9397L20.1175 35.2427C19.2218 34.347 17.7698 34.347 16.873 35.2427C15.9772 36.1385 15.9772 37.5904 16.873 38.4861L28.226 49.8403C29.1217 50.7349 30.5737 50.7349 31.4706 49.8403C31.5738 49.7371 31.6622 49.6247 31.7424 49.5077L54.5931 26.516C55.4876 25.6203 55.4876 24.1683 54.5931 23.2715C53.6962 22.3758 52.2442 22.3758 51.3474 23.2715Z" fill="#1BCE4D"/>
</g>
<defs>
<clipPath id="clip0_7641_2396">
<rect width="73.4009" height="73.4009" fill="white"/>
</clipPath>
</defs>
</svg>
