<svg viewBox="0 0 38 38" fill="none" xmlns="http://www.w3.org/2000/svg">
<path d="M19 20.5833C20.7489 20.5833 22.1667 19.1656 22.1667 17.4167C22.1667 15.6678 20.7489 14.25 19 14.25C17.2511 14.25 15.8333 15.6678 15.8333 17.4167C15.8333 19.1656 17.2511 20.5833 19 20.5833Z" stroke="#4FB1FC" stroke-width="2.5" stroke-linecap="round"/>
<path d="M6.33332 26.9183C4.34494 24.2717 3.16666 20.9817 3.16666 17.4167C3.16666 8.67216 10.2555 1.58334 19 1.58334C27.7444 1.58334 34.8333 8.67216 34.8333 17.4167C34.8333 20.9817 33.655 24.2717 31.6667 26.9183" stroke="#4FB1FC" stroke-width="2.5" stroke-linecap="round"/>
<path d="M11.919 23.75C10.4147 22.0693 9.5 19.8498 9.5 17.4167C9.5 12.1699 13.7533 7.91666 19 7.91666C24.2467 7.91666 28.5 12.1699 28.5 17.4167C28.5 19.8498 27.5853 22.0693 26.081 23.75" stroke="#4FB1FC" stroke-width="2.5" stroke-linecap="round"/>
<path d="M15.7566 28.3035C16.9768 26.5335 17.587 25.6484 18.379 25.4209C18.7853 25.3042 19.2147 25.3042 19.621 25.4209C20.413 25.6484 21.0232 26.5335 22.2435 28.3035C23.8672 30.6586 24.679 31.8362 24.5227 32.8178C24.4434 33.3156 24.2152 33.7749 23.8703 34.1311C23.1903 34.8333 21.7935 34.8333 19 34.8333C16.2065 34.8333 14.8098 34.8333 14.1297 34.1311C13.7848 33.7749 13.5566 33.3156 13.4773 32.8178C13.3211 31.8362 14.1329 30.6586 15.7566 28.3035Z" stroke="#4FB1FC" stroke-width="2.5" stroke-linecap="round" stroke-linejoin="round"/>
</svg>
